<?xml version="1.0" encoding="UTF-8" standalone="no"?>
<!DOCTYPE svg PUBLIC "-//W3C//DTD SVG 1.1//EN"
 "http://www.w3.org/Graphics/SVG/1.1/DTD/svg11.dtd">
<!-- Generated by graphviz version 2.36.0 (20140111.2315)
 -->
<!-- Title: DON_compute Pages: 1 -->
<svg width="816pt" height="816pt"
 viewBox="0.00 0.00 816.00 816.00" xmlns="http://www.w3.org/2000/svg" xmlns:xlink="http://www.w3.org/1999/xlink">
<g id="graph0" class="graph" transform="scale(1 1) rotate(0) translate(4 812)">
<title>DON_compute</title>
<polygon fill="white" stroke="none" points="-4,4 -4,-812 812,-812 812,4 -4,4"/>
<g id="clust1" class="cluster"><title>cluster_ComputeNode</title>
<polygon fill="none" stroke="black" points="344,-744 344,-800 464,-800 464,-744 344,-744"/>
</g>
<g id="clust2" class="cluster"><title>cluster_Nova</title>
<polygon fill="lightgrey" stroke="black" points="71,-344 71,-696 733,-696 733,-344 71,-344"/>
</g>
<g id="clust3" class="cluster"><title>cluster_VMs</title>
<polygon fill="lightgrey" stroke="black" points="194,-548 194,-688 614,-688 614,-548 194,-548"/>
</g>
<g id="clust4" class="cluster"><title>cluster_LinuxBridge</title>
<polygon fill="lightgrey" stroke="black" points="79,-352 79,-492 725,-492 725,-352 79,-352"/>
</g>
<g id="clust5" class="cluster"><title>cluster_OVS</title>
<polygon fill="lightgrey" stroke="black" points="8,-8 8,-304 800,-304 800,-8 8,-8"/>
</g>
<g id="clust6" class="cluster"><title>cluster_compute_br_int</title>
<polygon fill="lightgrey" stroke="black" points="16,-156 16,-296 792,-296 792,-156 16,-156"/>
</g>
<g id="clust7" class="cluster"><title>cluster_compute_br_tun</title>
<polygon fill="lightgrey" stroke="black" points="335,-16 335,-100 473,-100 473,-16 335,-16"/>
</g>
<!-- ComputeNode -->
<g id="node1" class="node"><title>ComputeNode</title>
<polygon fill="red" stroke="none" points="360,-756 360,-788 448,-788 448,-756 360,-756"/>
<polygon fill="yellow" stroke="none" points="365,-761 365,-783 443,-783 443,-761 365,-761"/>
<text text-anchor="start" x="370.5" y="-769.5" font-family="Helvetica,sans-Serif" font-size="10.00">Compute Node</text>
</g>
<!-- VMs -->
<g id="node2" class="node"><title>VMs</title>
<polygon fill="white" stroke="none" points="210.5,-560 210.5,-676 597.5,-676 597.5,-560 210.5,-560"/>
<polygon fill="white" stroke="none" points="216,-649 216,-671 593,-671 593,-649 216,-649"/>
<text text-anchor="start" x="394" y="-657.5" font-family="Helvetica,sans-Serif" font-size="10.00">VMs</text>
<polygon fill="#ff9933" stroke="none" points="216,-621 216,-644 265,-644 265,-621 216,-621"/>
<polygon fill="none" stroke="black" points="216,-621 216,-644 265,-644 265,-621 216,-621"/>
<text text-anchor="start" x="226" y="-630" font-family="Helvetica,sans-Serif" font-size="10.00">VM1&#45;1</text>
<polygon fill="#ff9933" stroke="none" points="270,-621 270,-644 318,-644 318,-621 270,-621"/>
<polygon fill="none" stroke="black" points="270,-621 270,-644 318,-644 318,-621 270,-621"/>
<text text-anchor="start" x="279.5" y="-630" font-family="Helvetica,sans-Serif" font-size="10.00">VM1&#45;2</text>
<polygon fill="#ff9933" stroke="none" points="323,-621 323,-644 371,-644 371,-621 323,-621"/>
<polygon fill="none" stroke="black" points="323,-621 323,-644 371,-644 371,-621 323,-621"/>
<text text-anchor="start" x="332.5" y="-630" font-family="Helvetica,sans-Serif" font-size="10.00">VM3&#45;1</text>
<polygon fill="#ff9933" stroke="none" points="376,-621 376,-644 424,-644 424,-621 376,-621"/>
<polygon fill="none" stroke="black" points="376,-621 376,-644 424,-644 424,-621 376,-621"/>
<text text-anchor="start" x="385.5" y="-630" font-family="Helvetica,sans-Serif" font-size="10.00">VM3&#45;2</text>
<polygon fill="#ff9933" stroke="none" points="429,-621 429,-644 593,-644 593,-621 429,-621"/>
<polygon fill="none" stroke="black" points="429,-621 429,-644 593,-644 593,-621 429,-621"/>
<text text-anchor="start" x="500.5" y="-630" font-family="Helvetica,sans-Serif" font-size="10.00">VM4</text>
<polygon fill="#c079f3" stroke="none" points="216,-593 216,-616 265,-616 265,-593 216,-593"/>
<polygon fill="none" stroke="black" points="216,-593 216,-616 265,-616 265,-593 216,-593"/>
<text text-anchor="start" x="223" y="-602" font-family="Helvetica,sans-Serif" font-size="10.00">private1</text>
<polygon fill="#c079f3" stroke="none" points="270,-593 270,-616 318,-616 318,-593 270,-593"/>
<polygon fill="none" stroke="black" points="270,-593 270,-616 318,-616 318,-593 270,-593"/>
<text text-anchor="start" x="276.5" y="-602" font-family="Helvetica,sans-Serif" font-size="10.00">private1</text>
<polygon fill="#b2f379" stroke="none" points="323,-593 323,-616 371,-616 371,-593 323,-593"/>
<polygon fill="none" stroke="black" points="323,-593 323,-616 371,-616 371,-593 323,-593"/>
<text text-anchor="start" x="329.5" y="-602" font-family="Helvetica,sans-Serif" font-size="10.00">private2</text>
<polygon fill="#b2f379" stroke="none" points="376,-593 376,-616 424,-616 424,-593 376,-593"/>
<polygon fill="none" stroke="black" points="376,-593 376,-616 424,-616 424,-593 376,-593"/>
<text text-anchor="start" x="382.5" y="-602" font-family="Helvetica,sans-Serif" font-size="10.00">private2</text>
<polygon fill="#79f3ef" stroke="none" points="429,-593 429,-616 487,-616 487,-593 429,-593"/>
<polygon fill="none" stroke="black" points="429,-593 429,-616 487,-616 487,-593 429,-593"/>
<text text-anchor="start" x="445" y="-602" font-family="Helvetica,sans-Serif" font-size="10.00">public</text>
<polygon fill="#b2f379" stroke="none" points="492,-593 492,-616 540,-616 540,-593 492,-593"/>
<polygon fill="none" stroke="black" points="492,-593 492,-616 540,-616 540,-593 492,-593"/>
<text text-anchor="start" x="498.5" y="-602" font-family="Helvetica,sans-Serif" font-size="10.00">private2</text>
<polygon fill="#c079f3" stroke="none" points="545,-593 545,-616 593,-616 593,-593 545,-593"/>
<polygon fill="none" stroke="black" points="545,-593 545,-616 593,-616 593,-593 545,-593"/>
<text text-anchor="start" x="551.5" y="-602" font-family="Helvetica,sans-Serif" font-size="10.00">private1</text>
<polygon fill="#c079f3" stroke="none" points="216,-565 216,-588 265,-588 265,-565 216,-565"/>
<polygon fill="none" stroke="black" points="216,-565 216,-588 265,-588 265,-565 216,-565"/>
<text text-anchor="start" x="222.5" y="-574" font-family="Helvetica,sans-Serif" font-size="10.00">10.0.2.3</text>
<polygon fill="#c079f3" stroke="none" points="270,-565 270,-588 318,-588 318,-565 270,-565"/>
<polygon fill="none" stroke="black" points="270,-565 270,-588 318,-588 318,-565 270,-565"/>
<text text-anchor="start" x="276" y="-574" font-family="Helvetica,sans-Serif" font-size="10.00">10.0.2.4</text>
<polygon fill="#b2f379" stroke="none" points="323,-565 323,-588 371,-588 371,-565 323,-565"/>
<polygon fill="none" stroke="black" points="323,-565 323,-588 371,-588 371,-565 323,-565"/>
<text text-anchor="start" x="329" y="-574" font-family="Helvetica,sans-Serif" font-size="10.00">10.0.3.3</text>
<polygon fill="#b2f379" stroke="none" points="376,-565 376,-588 424,-588 424,-565 376,-565"/>
<polygon fill="none" stroke="black" points="376,-565 376,-588 424,-588 424,-565 376,-565"/>
<text text-anchor="start" x="382" y="-574" font-family="Helvetica,sans-Serif" font-size="10.00">10.0.3.4</text>
<polygon fill="#79f3ef" stroke="none" points="429,-565 429,-588 487,-588 487,-565 429,-565"/>
<polygon fill="none" stroke="black" points="429,-565 429,-588 487,-588 487,-565 429,-565"/>
<text text-anchor="start" x="435" y="-574" font-family="Helvetica,sans-Serif" font-size="10.00">172.24.4.5</text>
<polygon fill="#b2f379" stroke="none" points="492,-565 492,-588 540,-588 540,-565 492,-565"/>
<polygon fill="none" stroke="black" points="492,-565 492,-588 540,-588 540,-565 492,-565"/>
<text text-anchor="start" x="498" y="-574" font-family="Helvetica,sans-Serif" font-size="10.00">10.0.3.6</text>
<polygon fill="#c079f3" stroke="none" points="545,-565 545,-588 593,-588 593,-565 545,-565"/>
<polygon fill="none" stroke="black" points="545,-565 545,-588 593,-588 593,-565 545,-565"/>
<text text-anchor="start" x="551" y="-574" font-family="Helvetica,sans-Serif" font-size="10.00">10.0.2.6</text>
</g>
<!-- ComputeNode&#45;&gt;VMs -->
<!-- LinuxBridge -->
<g id="node3" class="node"><title>LinuxBridge</title>
<polygon fill="white" stroke="none" points="95,-364 95,-480 709,-480 709,-364 95,-364"/>
<polygon fill="white" stroke="none" points="100,-453 100,-475 704,-475 704,-453 100,-453"/>
<text text-anchor="start" x="374.5" y="-461.5" font-family="Helvetica,sans-Serif" font-size="10.00">Linux Bridge</text>
<polygon fill="#c079f3" stroke="none" points="100,-425 100,-448 183,-448 183,-425 100,-425"/>
<polygon fill="none" stroke="black" points="100,-425 100,-448 183,-448 183,-425 100,-425"/>
<text text-anchor="start" x="108" y="-434" font-family="Helvetica,sans-Serif" font-size="10.00">tape0d697f2&#45;cb</text>
<polygon fill="#c079f3" stroke="none" points="188,-425 188,-448 265,-448 265,-425 188,-425"/>
<polygon fill="none" stroke="black" points="188,-425 188,-448 265,-448 265,-425 188,-425"/>
<text text-anchor="start" x="195" y="-434" font-family="Helvetica,sans-Serif" font-size="10.00">tapbd4f1f72&#45;5f</text>
<polygon fill="#b2f379" stroke="none" points="270,-425 270,-448 354,-448 354,-425 270,-425"/>
<polygon fill="none" stroke="black" points="270,-425 270,-448 354,-448 354,-425 270,-425"/>
<text text-anchor="start" x="277" y="-434" font-family="Helvetica,sans-Serif" font-size="10.00">tapbd96ca7d&#45;5e</text>
<polygon fill="#b2f379" stroke="none" points="359,-425 359,-448 441,-448 441,-425 359,-425"/>
<polygon fill="none" stroke="black" points="359,-425 359,-448 441,-448 441,-425 359,-425"/>
<text text-anchor="start" x="366.5" y="-434" font-family="Helvetica,sans-Serif" font-size="10.00">tap4441e3a6&#45;f2</text>
<polygon fill="#79f3ef" stroke="none" points="446,-425 446,-448 530,-448 530,-425 446,-425"/>
<polygon fill="none" stroke="black" points="446,-425 446,-448 530,-448 530,-425 446,-425"/>
<text text-anchor="start" x="453" y="-434" font-family="Helvetica,sans-Serif" font-size="10.00">tapce3d7b20&#45;1d</text>
<polygon fill="#b2f379" stroke="none" points="535,-425 535,-448 617,-448 617,-425 535,-425"/>
<polygon fill="none" stroke="black" points="535,-425 535,-448 617,-448 617,-425 535,-425"/>
<text text-anchor="start" x="542.5" y="-434" font-family="Helvetica,sans-Serif" font-size="10.00">tapf0841d56&#45;02</text>
<polygon fill="#c079f3" stroke="none" points="622,-425 622,-448 704,-448 704,-425 622,-425"/>
<polygon fill="none" stroke="black" points="622,-425 622,-448 704,-448 704,-425 622,-425"/>
<text text-anchor="start" x="629.5" y="-434" font-family="Helvetica,sans-Serif" font-size="10.00">tapfbb76083&#45;60</text>
<polygon fill="#c079f3" stroke="none" points="100,-397 100,-420 183,-420 183,-397 100,-397"/>
<polygon fill="none" stroke="black" points="100,-397 100,-420 183,-420 183,-397 100,-397"/>
<text text-anchor="start" x="108" y="-406" font-family="Helvetica,sans-Serif" font-size="10.00">qbre0d697f2&#45;cb</text>
<polygon fill="#c079f3" stroke="none" points="188,-397 188,-420 265,-420 265,-397 188,-397"/>
<polygon fill="none" stroke="black" points="188,-397 188,-420 265,-420 265,-397 188,-397"/>
<text text-anchor="start" x="195" y="-406" font-family="Helvetica,sans-Serif" font-size="10.00">qbrbd4f1f72&#45;5f</text>
<polygon fill="#b2f379" stroke="none" points="270,-397 270,-420 354,-420 354,-397 270,-397"/>
<polygon fill="none" stroke="black" points="270,-397 270,-420 354,-420 354,-397 270,-397"/>
<text text-anchor="start" x="277" y="-406" font-family="Helvetica,sans-Serif" font-size="10.00">qbrbd96ca7d&#45;5e</text>
<polygon fill="#b2f379" stroke="none" points="359,-397 359,-420 441,-420 441,-397 359,-397"/>
<polygon fill="none" stroke="black" points="359,-397 359,-420 441,-420 441,-397 359,-397"/>
<text text-anchor="start" x="366.5" y="-406" font-family="Helvetica,sans-Serif" font-size="10.00">qbr4441e3a6&#45;f2</text>
<polygon fill="#79f3ef" stroke="none" points="446,-397 446,-420 530,-420 530,-397 446,-397"/>
<polygon fill="none" stroke="black" points="446,-397 446,-420 530,-420 530,-397 446,-397"/>
<text text-anchor="start" x="453" y="-406" font-family="Helvetica,sans-Serif" font-size="10.00">qbrce3d7b20&#45;1d</text>
<polygon fill="#b2f379" stroke="none" points="535,-397 535,-420 617,-420 617,-397 535,-397"/>
<polygon fill="none" stroke="black" points="535,-397 535,-420 617,-420 617,-397 535,-397"/>
<text text-anchor="start" x="542.5" y="-406" font-family="Helvetica,sans-Serif" font-size="10.00">qbrf0841d56&#45;02</text>
<polygon fill="#c079f3" stroke="none" points="622,-397 622,-420 704,-420 704,-397 622,-397"/>
<polygon fill="none" stroke="black" points="622,-397 622,-420 704,-420 704,-397 622,-397"/>
<text text-anchor="start" x="629.5" y="-406" font-family="Helvetica,sans-Serif" font-size="10.00">qbrfbb76083&#45;60</text>
<polygon fill="#c079f3" stroke="none" points="100,-369 100,-392 183,-392 183,-369 100,-369"/>
<polygon fill="none" stroke="black" points="100,-369 100,-392 183,-392 183,-369 100,-369"/>
<text text-anchor="start" x="106.5" y="-378" font-family="Helvetica,sans-Serif" font-size="10.00">qvbe0d697f2&#45;cb</text>
<polygon fill="#c079f3" stroke="none" points="188,-369 188,-392 265,-392 265,-369 188,-369"/>
<polygon fill="none" stroke="black" points="188,-369 188,-392 265,-392 265,-369 188,-369"/>
<text text-anchor="start" x="194" y="-378" font-family="Helvetica,sans-Serif" font-size="10.00">qvbbd4f1f72&#45;5f</text>
<polygon fill="#b2f379" stroke="none" points="270,-369 270,-392 354,-392 354,-369 270,-369"/>
<polygon fill="none" stroke="black" points="270,-369 270,-392 354,-392 354,-369 270,-369"/>
<text text-anchor="start" x="276" y="-378" font-family="Helvetica,sans-Serif" font-size="10.00">qvbbd96ca7d&#45;5e</text>
<polygon fill="#b2f379" stroke="none" points="359,-369 359,-392 441,-392 441,-369 359,-369"/>
<polygon fill="none" stroke="black" points="359,-369 359,-392 441,-392 441,-369 359,-369"/>
<text text-anchor="start" x="365" y="-378" font-family="Helvetica,sans-Serif" font-size="10.00">qvb4441e3a6&#45;f2</text>
<polygon fill="#79f3ef" stroke="none" points="446,-369 446,-392 530,-392 530,-369 446,-369"/>
<polygon fill="none" stroke="black" points="446,-369 446,-392 530,-392 530,-369 446,-369"/>
<text text-anchor="start" x="452" y="-378" font-family="Helvetica,sans-Serif" font-size="10.00">qvbce3d7b20&#45;1d</text>
<polygon fill="#b2f379" stroke="none" points="535,-369 535,-392 617,-392 617,-369 535,-369"/>
<polygon fill="none" stroke="black" points="535,-369 535,-392 617,-392 617,-369 535,-369"/>
<text text-anchor="start" x="541" y="-378" font-family="Helvetica,sans-Serif" font-size="10.00">qvbf0841d56&#45;02</text>
<polygon fill="#c079f3" stroke="none" points="622,-369 622,-392 704,-392 704,-369 622,-369"/>
<polygon fill="none" stroke="black" points="622,-369 622,-392 704,-392 704,-369 622,-369"/>
<text text-anchor="start" x="628" y="-378" font-family="Helvetica,sans-Serif" font-size="10.00">qvbfbb76083&#45;60</text>
</g>
<!-- VMs&#45;&gt;LinuxBridge -->
<g id="edge2" class="edge"><title>VMs:10023:s&#45;&gt;LinuxBridge:tape0d697f2_cb:n</title>
<path fill="none" stroke="#0066cc" stroke-width="4" d="M240,-564C240,-496.559 141,-516.441 141,-449"/>
</g>
<!-- VMs&#45;&gt;LinuxBridge -->
<g id="edge3" class="edge"><title>VMs:10024:s&#45;&gt;LinuxBridge:tapbd4f1f72_5f:n</title>
<path fill="none" stroke="#0066cc" stroke-width="4" d="M294,-564C294,-504.622 226,-508.378 226,-449"/>
</g>
<!-- VMs&#45;&gt;LinuxBridge -->
<g id="edge4" class="edge"><title>VMs:10033:s&#45;&gt;LinuxBridge:tapbd96ca7d_5e:n</title>
<path fill="none" stroke="#0066cc" stroke-width="4" d="M347,-564C347,-510.574 312,-502.426 312,-449"/>
</g>
<!-- VMs&#45;&gt;LinuxBridge -->
<g id="edge5" class="edge"><title>VMs:10034:s&#45;&gt;LinuxBridge:tap4441e3a6_f2:n</title>
<path fill="none" stroke="#0066cc" stroke-width="4" d="M400,-564C400,-512.889 400,-500.111 400,-449"/>
</g>
<!-- VMs&#45;&gt;LinuxBridge -->
<g id="edge6" class="edge"><title>VMs:1722445:s&#45;&gt;LinuxBridge:tapce3d7b20_1d:n</title>
<path fill="none" stroke="#0066cc" stroke-width="4" d="M458,-564C458,-511.178 488,-501.822 488,-449"/>
</g>
<!-- VMs&#45;&gt;LinuxBridge -->
<g id="edge7" class="edge"><title>VMs:10036:s&#45;&gt;LinuxBridge:tapf0841d56_02:n</title>
<path fill="none" stroke="#0066cc" stroke-width="4" d="M516,-564C516,-506.351 576,-506.649 576,-449"/>
</g>
<!-- VMs&#45;&gt;LinuxBridge -->
<g id="edge8" class="edge"><title>VMs:10026:s&#45;&gt;LinuxBridge:tapfbb76083_60:n</title>
<path fill="none" stroke="#0066cc" stroke-width="4" d="M569,-564C569,-497.987 663,-515.013 663,-449"/>
</g>
<!-- compute_br_int -->
<g id="node4" class="node"><title>compute_br_int</title>
<polygon fill="white" stroke="none" points="32.5,-168 32.5,-284 775.5,-284 775.5,-168 32.5,-168"/>
<polygon fill="white" stroke="none" points="38,-257 38,-279 771,-279 771,-257 38,-257"/>
<text text-anchor="start" x="380" y="-265.5" font-family="Helvetica,sans-Serif" font-size="10.00">OVS br_int</text>
<polygon fill="#c079f3" stroke="none" points="38,-229 38,-252 135,-252 135,-229 38,-229"/>
<polygon fill="none" stroke="black" points="38,-229 38,-252 135,-252 135,-229 38,-229"/>
<text text-anchor="start" x="44.5" y="-238" font-family="Helvetica,sans-Serif" font-size="10.00">[9] qvoe0d697f2&#45;cb</text>
<polygon fill="#c079f3" stroke="none" points="140,-229 140,-252 237,-252 237,-229 140,-229"/>
<polygon fill="none" stroke="black" points="140,-229 140,-252 237,-252 237,-229 140,-229"/>
<text text-anchor="start" x="146" y="-238" font-family="Helvetica,sans-Serif" font-size="10.00">[10] qvobd4f1f72&#45;5f</text>
<polygon fill="#b2f379" stroke="none" points="242,-229 242,-252 345,-252 345,-229 242,-229"/>
<polygon fill="none" stroke="black" points="242,-229 242,-252 345,-252 345,-229 242,-229"/>
<text text-anchor="start" x="248" y="-238" font-family="Helvetica,sans-Serif" font-size="10.00">[11] qvobd96ca7d&#45;5e</text>
<polygon fill="#b2f379" stroke="none" points="350,-229 350,-252 451,-252 451,-229 350,-229"/>
<polygon fill="none" stroke="black" points="350,-229 350,-252 451,-252 451,-229 350,-229"/>
<text text-anchor="start" x="356" y="-238" font-family="Helvetica,sans-Serif" font-size="10.00">[12] qvo4441e3a6&#45;f2</text>
<polygon fill="#79f3ef" stroke="none" points="456,-229 456,-252 559,-252 559,-229 456,-229"/>
<polygon fill="none" stroke="black" points="456,-229 456,-252 559,-252 559,-229 456,-229"/>
<text text-anchor="start" x="462" y="-238" font-family="Helvetica,sans-Serif" font-size="10.00">[17] qvoce3d7b20&#45;1d</text>
<polygon fill="#b2f379" stroke="none" points="564,-229 564,-252 665,-252 665,-229 564,-229"/>
<polygon fill="none" stroke="black" points="564,-229 564,-252 665,-252 665,-229 564,-229"/>
<text text-anchor="start" x="570" y="-238" font-family="Helvetica,sans-Serif" font-size="10.00">[16] qvof0841d56&#45;02</text>
<polygon fill="#c079f3" stroke="none" points="670,-229 670,-252 771,-252 771,-229 670,-229"/>
<polygon fill="none" stroke="black" points="670,-229 670,-252 771,-252 771,-229 670,-229"/>
<text text-anchor="start" x="676" y="-238" font-family="Helvetica,sans-Serif" font-size="10.00">[15] qvofbb76083&#45;60</text>
<polygon fill="#c079f3" stroke="none" points="38,-201 38,-224 135,-224 135,-201 38,-201"/>
<polygon fill="none" stroke="black" points="38,-201 38,-224 135,-224 135,-201 38,-201"/>
<text text-anchor="start" x="60.5" y="-210" font-family="Helvetica,sans-Serif" font-size="10.00">VLAN tag:2</text>
<polygon fill="#c079f3" stroke="none" points="140,-201 140,-224 237,-224 237,-201 140,-201"/>
<polygon fill="none" stroke="black" points="140,-201 140,-224 237,-224 237,-201 140,-201"/>
<text text-anchor="start" x="162.5" y="-210" font-family="Helvetica,sans-Serif" font-size="10.00">VLAN tag:2</text>
<polygon fill="#b2f379" stroke="none" points="242,-201 242,-224 345,-224 345,-201 242,-201"/>
<polygon fill="none" stroke="black" points="242,-201 242,-224 345,-224 345,-201 242,-201"/>
<text text-anchor="start" x="267.5" y="-210" font-family="Helvetica,sans-Serif" font-size="10.00">VLAN tag:3</text>
<polygon fill="#b2f379" stroke="none" points="350,-201 350,-224 451,-224 451,-201 350,-201"/>
<polygon fill="none" stroke="black" points="350,-201 350,-224 451,-224 451,-201 350,-201"/>
<text text-anchor="start" x="374.5" y="-210" font-family="Helvetica,sans-Serif" font-size="10.00">VLAN tag:3</text>
<polygon fill="#79f3ef" stroke="none" points="456,-201 456,-224 559,-224 559,-201 456,-201"/>
<polygon fill="none" stroke="black" points="456,-201 456,-224 559,-224 559,-201 456,-201"/>
<text text-anchor="start" x="481.5" y="-210" font-family="Helvetica,sans-Serif" font-size="10.00">VLAN tag:4</text>
<polygon fill="#b2f379" stroke="none" points="564,-201 564,-224 665,-224 665,-201 564,-201"/>
<polygon fill="none" stroke="black" points="564,-201 564,-224 665,-224 665,-201 564,-201"/>
<text text-anchor="start" x="588.5" y="-210" font-family="Helvetica,sans-Serif" font-size="10.00">VLAN tag:3</text>
<polygon fill="#c079f3" stroke="none" points="670,-201 670,-224 771,-224 771,-201 670,-201"/>
<polygon fill="none" stroke="black" points="670,-201 670,-224 771,-224 771,-201 670,-201"/>
<text text-anchor="start" x="694.5" y="-210" font-family="Helvetica,sans-Serif" font-size="10.00">VLAN tag:2</text>
<polygon fill="#ffcc00" stroke="none" points="38,-173 38,-196 771,-196 771,-173 38,-173"/>
<polygon fill="none" stroke="black" points="38,-173 38,-196 771,-196 771,-173 38,-173"/>
<text text-anchor="start" x="377" y="-182" font-family="Helvetica,sans-Serif" font-size="10.00">[1] patch&#45;tun</text>
</g>
<!-- LinuxBridge&#45;&gt;compute_br_int -->
<g id="edge9" class="edge"><title>LinuxBridge:qvbe0d697f2_cb:s&#45;&gt;compute_br_int:qvoe0d697f2_cb:n</title>
<path fill="none" stroke="#0066cc" stroke-width="4" d="M141,-368C141,-311.344 86,-309.656 86,-253"/>
</g>
<!-- LinuxBridge&#45;&gt;compute_br_int -->
<g id="edge10" class="edge"><title>LinuxBridge:qvbbd4f1f72_5f:s&#45;&gt;compute_br_int:qvobd4f1f72_5f:n</title>
<path fill="none" stroke="#0066cc" stroke-width="4" d="M226,-368C226,-314.171 188,-306.829 188,-253"/>
</g>
<!-- LinuxBridge&#45;&gt;compute_br_int -->
<g id="edge11" class="edge"><title>LinuxBridge:qvbbd96ca7d_5e:s&#45;&gt;compute_br_int:qvobd96ca7d_5e:n</title>
<path fill="none" stroke="#0066cc" stroke-width="4" d="M312,-368C312,-316.196 293,-304.804 293,-253"/>
</g>
<!-- LinuxBridge&#45;&gt;compute_br_int -->
<g id="edge12" class="edge"><title>LinuxBridge:qvb4441e3a6_f2:s&#45;&gt;compute_br_int:qvo4441e3a6_f2:n</title>
<path fill="none" stroke="#0066cc" stroke-width="4" d="M400,-368C400,-316.889 400,-304.111 400,-253"/>
</g>
<!-- LinuxBridge&#45;&gt;compute_br_int -->
<g id="edge13" class="edge"><title>LinuxBridge:qvbce3d7b20_1d:s&#45;&gt;compute_br_int:qvoce3d7b20_1d:n</title>
<path fill="none" stroke="#0066cc" stroke-width="4" d="M488,-368C488,-316.122 508,-304.878 508,-253"/>
</g>
<!-- LinuxBridge&#45;&gt;compute_br_int -->
<g id="edge14" class="edge"><title>LinuxBridge:qvbf0841d56_02:s&#45;&gt;compute_br_int:qvof0841d56_02:n</title>
<path fill="none" stroke="#0066cc" stroke-width="4" d="M576,-368C576,-314.03 615,-306.97 615,-253"/>
</g>
<!-- LinuxBridge&#45;&gt;compute_br_int -->
<g id="edge15" class="edge"><title>LinuxBridge:qvbfbb76083_60:s&#45;&gt;compute_br_int:qvofbb76083_60:n</title>
<path fill="none" stroke="#0066cc" stroke-width="4" d="M663,-368C663,-310.756 721,-310.244 721,-253"/>
</g>
<!-- compute_br_tun -->
<g id="node5" class="node"><title>compute_br_tun</title>
<polygon fill="white" stroke="none" points="351.5,-28 351.5,-88 456.5,-88 456.5,-28 351.5,-28"/>
<polygon fill="white" stroke="none" points="357,-61 357,-83 452,-83 452,-61 357,-61"/>
<text text-anchor="start" x="378.5" y="-69.5" font-family="Helvetica,sans-Serif" font-size="10.00">OVS br_tun</text>
<polygon fill="#ffcc00" stroke="none" points="357,-33 357,-56 452,-56 452,-33 357,-33"/>
<polygon fill="none" stroke="black" points="357,-33 357,-56 452,-56 452,-33 357,-33"/>
<text text-anchor="start" x="378.5" y="-42" font-family="Helvetica,sans-Serif" font-size="10.00">[1] patch&#45;int</text>
</g>
<!-- compute_br_int&#45;&gt;compute_br_tun -->
<g id="edge16" class="edge"><title>compute_br_int:patch_tun:s&#45;&gt;compute_br_tun:patch_int:n</title>
<path fill="none" stroke="#0066cc" stroke-width="4" d="M405,-172C405,-120.889 405,-108.111 405,-57"/>
</g>
</g>
</svg>
