<?xml version="1.0" encoding="UTF-8" standalone="no"?>
<!DOCTYPE svg PUBLIC "-//W3C//DTD SVG 1.1//EN"
 "http://www.w3.org/Graphics/SVG/1.1/DTD/svg11.dtd">
<!-- Generated by graphviz version 2.36.0 (20140111.2315)
 -->
<!-- Title: DON_DON Pages: 1 -->
<svg width="572pt" height="916pt"
 viewBox="0.00 0.00 572.00 916.00" xmlns="http://www.w3.org/2000/svg" xmlns:xlink="http://www.w3.org/1999/xlink">
<g id="graph0" class="graph" transform="scale(1 1) rotate(0) translate(4 912)">
<title>DON_DON</title>
<polygon fill="white" stroke="none" points="-4,4 -4,-912 568,-912 568,4 -4,4"/>
<g id="clust1" class="cluster"><title>cluster_DONComputeNode</title>
<polygon fill="lightgrey" stroke="black" points="8,-8 8,-900 282,-900 282,-8 8,-8"/>
</g>
<g id="clust2" class="cluster"><title>cluster_ComputeNode</title>
<polygon fill="lightgrey" stroke="black" points="85,-836 85,-892 205,-892 205,-836 85,-836"/>
</g>
<g id="clust3" class="cluster"><title>cluster_Nova</title>
<polygon fill="lightgrey" stroke="black" points="30,-394 30,-788 260,-788 260,-394 30,-394"/>
</g>
<g id="clust4" class="cluster"><title>cluster_VMs</title>
<polygon fill="lightgrey" stroke="black" points="68,-640 68,-780 222,-780 222,-640 68,-640"/>
</g>
<g id="clust5" class="cluster"><title>cluster_LinuxBridge</title>
<polygon fill="lightgrey" stroke="black" points="38,-402 38,-542 252,-542 252,-402 38,-402"/>
</g>
<g id="clust6" class="cluster"><title>cluster_OVS</title>
<polygon fill="lightgrey" stroke="black" points="16,-16 16,-312 274,-312 274,-16 16,-16"/>
</g>
<g id="clust7" class="cluster"><title>cluster_compute_br_int</title>
<polygon fill="lightgrey" stroke="black" points="24,-164 24,-304 266,-304 266,-164 24,-164"/>
</g>
<g id="clust8" class="cluster"><title>cluster_compute_br_tun</title>
<polygon fill="lightgrey" stroke="black" points="89,-24 89,-108 201,-108 201,-24 89,-24"/>
</g>
<g id="clust9" class="cluster"><title>cluster_DONNetworkNode</title>
<polygon fill="lightgrey" stroke="black" points="290,-176 290,-900 556,-900 556,-176 290,-176"/>
</g>
<g id="clust11" class="cluster"><title>cluster_OVS</title>
<polygon fill="lightgrey" stroke="black" points="298,-184 298,-788 548,-788 548,-184 298,-184"/>
</g>
<g id="clust12" class="cluster"><title>cluster_br_ex</title>
<polygon fill="lightgrey" stroke="black" points="306,-640 306,-780 444,-780 444,-640 306,-640"/>
</g>
<g id="clust13" class="cluster"><title>cluster_network_br_int</title>
<polygon fill="lightgrey" stroke="black" points="306,-360 306,-584 540,-584 540,-360 306,-360"/>
</g>
<g id="clust14" class="cluster"><title>cluster_network_br_tun</title>
<polygon fill="lightgrey" stroke="black" points="368,-192 368,-276 480,-276 480,-192 368,-192"/>
</g>
<g id="clust10" class="cluster"><title>cluster_NetworkNode</title>
<polygon fill="lightgrey" stroke="black" points="316,-836 316,-892 434,-892 434,-836 316,-836"/>
</g>
<!-- ComputeNode -->
<g id="node1" class="node"><title>ComputeNode</title>
<polygon fill="red" stroke="none" points="101,-848 101,-880 189,-880 189,-848 101,-848"/>
<polygon fill="yellow" stroke="none" points="106,-853 106,-875 184,-875 184,-853 106,-853"/>
<text text-anchor="start" x="111.5" y="-861.5" font-family="Helvetica,sans-Serif" font-size="10.00">Compute Node</text>
</g>
<!-- VMs -->
<g id="node2" class="node"><title>VMs</title>
<polygon fill="white" stroke="none" points="84,-652 84,-768 206,-768 206,-652 84,-652"/>
<polygon fill="white" stroke="none" points="89,-741 89,-763 201,-763 201,-741 89,-741"/>
<text text-anchor="start" x="134.5" y="-749.5" font-family="Helvetica,sans-Serif" font-size="10.00">VMs</text>
<polygon fill="#ff9933" stroke="none" points="89,-713 89,-736 143,-736 143,-713 89,-713"/>
<polygon fill="none" stroke="black" points="89,-713 89,-736 143,-736 143,-713 89,-713"/>
<text text-anchor="start" x="106.5" y="-722" font-family="Helvetica,sans-Serif" font-size="10.00">vm1</text>
<polygon fill="#ff9933" stroke="none" points="148,-713 148,-736 201,-736 201,-713 148,-713"/>
<polygon fill="none" stroke="black" points="148,-713 148,-736 201,-736 201,-713 148,-713"/>
<text text-anchor="start" x="165" y="-722" font-family="Helvetica,sans-Serif" font-size="10.00">vm2</text>
<polygon fill="#c079f3" stroke="none" points="89,-685 89,-708 143,-708 143,-685 89,-685"/>
<polygon fill="none" stroke="black" points="89,-685 89,-708 143,-708 143,-685 89,-685"/>
<text text-anchor="start" x="98.5" y="-694" font-family="Helvetica,sans-Serif" font-size="10.00">private1</text>
<polygon fill="#c079f3" stroke="none" points="148,-685 148,-708 201,-708 201,-685 148,-685"/>
<polygon fill="none" stroke="black" points="148,-685 148,-708 201,-708 201,-685 148,-685"/>
<text text-anchor="start" x="157" y="-694" font-family="Helvetica,sans-Serif" font-size="10.00">private1</text>
<polygon fill="#c079f3" stroke="none" points="89,-657 89,-680 143,-680 143,-657 89,-657"/>
<polygon fill="none" stroke="black" points="89,-657 89,-680 143,-680 143,-657 89,-657"/>
<text text-anchor="start" x="95.5" y="-666" font-family="Helvetica,sans-Serif" font-size="10.00">10.10.0.3</text>
<polygon fill="#c079f3" stroke="none" points="148,-657 148,-680 201,-680 201,-657 148,-657"/>
<polygon fill="none" stroke="black" points="148,-657 148,-680 201,-680 201,-657 148,-657"/>
<text text-anchor="start" x="154" y="-666" font-family="Helvetica,sans-Serif" font-size="10.00">10.10.0.4</text>
</g>
<!-- ComputeNode&#45;&gt;VMs -->
<!-- LinuxBridge -->
<g id="node3" class="node"><title>LinuxBridge</title>
<polygon fill="white" stroke="none" points="54,-414 54,-530 236,-530 236,-414 54,-414"/>
<polygon fill="white" stroke="none" points="59,-503 59,-525 231,-525 231,-503 59,-503"/>
<text text-anchor="start" x="117.5" y="-511.5" font-family="Helvetica,sans-Serif" font-size="10.00">Linux Bridge</text>
<polygon fill="#c079f3" stroke="none" points="59,-475 59,-498 144,-498 144,-475 59,-475"/>
<polygon fill="none" stroke="black" points="59,-475 59,-498 144,-498 144,-475 59,-475"/>
<text text-anchor="start" x="66.5" y="-484" font-family="Helvetica,sans-Serif" font-size="10.00">tap8aa60600&#45;7b</text>
<polygon fill="#c079f3" stroke="none" points="149,-475 149,-498 231,-498 231,-475 149,-475"/>
<polygon fill="none" stroke="black" points="149,-475 149,-498 231,-498 231,-475 149,-475"/>
<text text-anchor="start" x="156.5" y="-484" font-family="Helvetica,sans-Serif" font-size="10.00">tap71ac5bef&#45;7c</text>
<polygon fill="#c079f3" stroke="none" points="59,-447 59,-470 144,-470 144,-447 59,-447"/>
<polygon fill="none" stroke="black" points="59,-447 59,-470 144,-470 144,-447 59,-447"/>
<text text-anchor="start" x="66.5" y="-456" font-family="Helvetica,sans-Serif" font-size="10.00">qbr8aa60600&#45;7b</text>
<polygon fill="#c079f3" stroke="none" points="149,-447 149,-470 231,-470 231,-447 149,-447"/>
<polygon fill="none" stroke="black" points="149,-447 149,-470 231,-470 231,-447 149,-447"/>
<text text-anchor="start" x="156.5" y="-456" font-family="Helvetica,sans-Serif" font-size="10.00">qbr71ac5bef&#45;7c</text>
<polygon fill="#c079f3" stroke="none" points="59,-419 59,-442 144,-442 144,-419 59,-419"/>
<polygon fill="none" stroke="black" points="59,-419 59,-442 144,-442 144,-419 59,-419"/>
<text text-anchor="start" x="65.5" y="-428" font-family="Helvetica,sans-Serif" font-size="10.00">qvb8aa60600&#45;7b</text>
<polygon fill="#c079f3" stroke="none" points="149,-419 149,-442 231,-442 231,-419 149,-419"/>
<polygon fill="none" stroke="black" points="149,-419 149,-442 231,-442 231,-419 149,-419"/>
<text text-anchor="start" x="155" y="-428" font-family="Helvetica,sans-Serif" font-size="10.00">qvb71ac5bef&#45;7c</text>
</g>
<!-- VMs&#45;&gt;LinuxBridge -->
<g id="edge2" class="edge"><title>VMs:101003:s&#45;&gt;LinuxBridge:tap8aa60600_7b:n</title>
<path fill="none" stroke="#0066cc" stroke-width="4" d="M116,-656C116,-585.904 101,-569.096 101,-499"/>
</g>
<!-- VMs&#45;&gt;LinuxBridge -->
<g id="edge3" class="edge"><title>VMs:101004:s&#45;&gt;LinuxBridge:tap71ac5bef_7c:n</title>
<path fill="none" stroke="#0066cc" stroke-width="4" d="M175,-656C175,-585.904 190,-569.096 190,-499"/>
</g>
<!-- compute_br_int -->
<g id="node4" class="node"><title>compute_br_int</title>
<polygon fill="white" stroke="none" points="40,-176 40,-292 250,-292 250,-176 40,-176"/>
<polygon fill="white" stroke="none" points="45,-265 45,-287 245,-287 245,-265 45,-265"/>
<text text-anchor="start" x="120.5" y="-273.5" font-family="Helvetica,sans-Serif" font-size="10.00">OVS br_int</text>
<polygon fill="#c079f3" stroke="none" points="45,-237 45,-260 144,-260 144,-237 45,-237"/>
<polygon fill="none" stroke="black" points="45,-237 45,-260 144,-260 144,-237 45,-237"/>
<text text-anchor="start" x="51.5" y="-246" font-family="Helvetica,sans-Serif" font-size="10.00">[6] qvo8aa60600&#45;7b</text>
<polygon fill="#c079f3" stroke="none" points="149,-237 149,-260 245,-260 245,-237 149,-237"/>
<polygon fill="none" stroke="black" points="149,-237 149,-260 245,-260 245,-237 149,-237"/>
<text text-anchor="start" x="155" y="-246" font-family="Helvetica,sans-Serif" font-size="10.00">[7] qvo71ac5bef&#45;7c</text>
<polygon fill="#c079f3" stroke="none" points="45,-209 45,-232 144,-232 144,-209 45,-209"/>
<polygon fill="none" stroke="black" points="45,-209 45,-232 144,-232 144,-209 45,-209"/>
<text text-anchor="start" x="68.5" y="-218" font-family="Helvetica,sans-Serif" font-size="10.00">VLAN tag:2</text>
<polygon fill="#c079f3" stroke="none" points="149,-209 149,-232 245,-232 245,-209 149,-209"/>
<polygon fill="none" stroke="black" points="149,-209 149,-232 245,-232 245,-209 149,-209"/>
<text text-anchor="start" x="171" y="-218" font-family="Helvetica,sans-Serif" font-size="10.00">VLAN tag:2</text>
<polygon fill="#ffcc00" stroke="none" points="45,-181 45,-204 245,-204 245,-181 45,-181"/>
<polygon fill="none" stroke="black" points="45,-181 45,-204 245,-204 245,-181 45,-181"/>
<text text-anchor="start" x="117.5" y="-190" font-family="Helvetica,sans-Serif" font-size="10.00">[1] patch&#45;tun</text>
</g>
<!-- LinuxBridge&#45;&gt;compute_br_int -->
<g id="edge4" class="edge"><title>LinuxBridge:qvb8aa60600_7b:s&#45;&gt;compute_br_int:qvo8aa60600_7b:n</title>
<path fill="none" stroke="#0066cc" stroke-width="4" d="M101,-418C101,-348.153 94,-330.847 94,-261"/>
</g>
<!-- LinuxBridge&#45;&gt;compute_br_int -->
<g id="edge5" class="edge"><title>LinuxBridge:qvb71ac5bef_7c:s&#45;&gt;compute_br_int:qvo71ac5bef_7c:n</title>
<path fill="none" stroke="#0066cc" stroke-width="4" d="M190,-418C190,-348.153 197,-330.847 197,-261"/>
</g>
<!-- compute_br_tun -->
<g id="node5" class="node"><title>compute_br_tun</title>
<polygon fill="white" stroke="none" points="105,-36 105,-96 185,-96 185,-36 105,-36"/>
<polygon fill="white" stroke="none" points="110,-69 110,-91 180,-91 180,-69 110,-69"/>
<text text-anchor="start" x="119" y="-77.5" font-family="Helvetica,sans-Serif" font-size="10.00">OVS br_tun</text>
<polygon fill="#ffcc00" stroke="none" points="110,-41 110,-64 180,-64 180,-41 110,-41"/>
<polygon fill="none" stroke="black" points="110,-41 110,-64 180,-64 180,-41 110,-41"/>
<text text-anchor="start" x="119" y="-50" font-family="Helvetica,sans-Serif" font-size="10.00">[1] patch&#45;int</text>
</g>
<!-- compute_br_int&#45;&gt;compute_br_tun -->
<g id="edge6" class="edge"><title>compute_br_int:patch_tun:s&#45;&gt;compute_br_tun:patch_int:n</title>
<path fill="none" stroke="#0066cc" stroke-width="4" d="M145,-180C145,-128.889 145,-116.111 145,-65"/>
</g>
<!-- NetworkNode -->
<g id="node6" class="node"><title>NetworkNode</title>
<polygon fill="red" stroke="none" points="332.5,-848 332.5,-880 417.5,-880 417.5,-848 332.5,-848"/>
<polygon fill="yellow" stroke="none" points="338,-853 338,-875 413,-875 413,-853 338,-853"/>
<text text-anchor="start" x="343.5" y="-861.5" font-family="Helvetica,sans-Serif" font-size="10.00">Network Node</text>
</g>
<!-- br_ex -->
<g id="node7" class="node"><title>br_ex</title>
<polygon fill="white" stroke="none" points="322.5,-652 322.5,-768 427.5,-768 427.5,-652 322.5,-652"/>
<polygon fill="white" stroke="none" points="328,-741 328,-763 423,-763 423,-741 328,-741"/>
<text text-anchor="start" x="351" y="-749.5" font-family="Helvetica,sans-Serif" font-size="10.00">OVS br_ex</text>
<polygon fill="#ff9933" stroke="none" points="328,-713 328,-736 423,-736 423,-713 328,-713"/>
<polygon fill="none" stroke="black" points="328,-713 328,-736 423,-736 423,-713 328,-713"/>
<text text-anchor="start" x="360" y="-722" font-family="Helvetica,sans-Serif" font-size="10.00">router1</text>
<polygon fill="#ff9933" stroke="none" points="328,-685 328,-708 423,-708 423,-685 328,-685"/>
<polygon fill="none" stroke="black" points="328,-685 328,-708 423,-708 423,-685 328,-685"/>
<text text-anchor="start" x="345.5" y="-694" font-family="Helvetica,sans-Serif" font-size="10.00">172.24.4.3/24</text>
<polygon fill="#ff9933" stroke="none" points="328,-657 328,-680 423,-680 423,-657 328,-657"/>
<polygon fill="none" stroke="black" points="328,-657 328,-680 423,-680 423,-657 328,-657"/>
<text text-anchor="start" x="334.5" y="-666" font-family="Helvetica,sans-Serif" font-size="10.00">[2] qg&#45;757bf552&#45;73</text>
</g>
<!-- NetworkNode&#45;&gt;br_ex -->
<!-- network_br_int -->
<g id="node8" class="node"><title>network_br_int</title>
<polygon fill="white" stroke="none" points="322.5,-372 322.5,-572 523.5,-572 523.5,-372 322.5,-372"/>
<polygon fill="white" stroke="none" points="328,-545 328,-567 519,-567 519,-545 328,-545"/>
<text text-anchor="start" x="399" y="-553.5" font-family="Helvetica,sans-Serif" font-size="10.00">OVS br_int</text>
<polygon fill="#c079f3" stroke="none" points="328,-517 328,-540 423,-540 423,-517 328,-517"/>
<polygon fill="none" stroke="black" points="328,-517 328,-540 423,-540 423,-517 328,-517"/>
<text text-anchor="start" x="334.5" y="-526" font-family="Helvetica,sans-Serif" font-size="10.00">[8] qr&#45;43b83157&#45;3b</text>
<polygon fill="#c079f3" stroke="none" points="428,-517 428,-540 519,-540 519,-517 428,-517"/>
<polygon fill="none" stroke="black" points="428,-517 428,-540 519,-540 519,-517 428,-517"/>
<text text-anchor="start" x="434" y="-526" font-family="Helvetica,sans-Serif" font-size="10.00">[5] tap59f90a3b&#45;f5</text>
<polygon fill="#c079f3" stroke="none" points="328,-489 328,-512 423,-512 423,-489 328,-489"/>
<polygon fill="none" stroke="black" points="328,-489 328,-512 423,-512 423,-489 328,-489"/>
<text text-anchor="start" x="349.5" y="-498" font-family="Helvetica,sans-Serif" font-size="10.00">VLAN tag:2</text>
<polygon fill="#c079f3" stroke="none" points="428,-489 428,-512 519,-512 519,-489 428,-489"/>
<polygon fill="none" stroke="black" points="428,-489 428,-512 519,-512 519,-489 428,-489"/>
<text text-anchor="start" x="447.5" y="-498" font-family="Helvetica,sans-Serif" font-size="10.00">VLAN tag:2</text>
<polygon fill="#c079f3" stroke="none" points="328,-461 328,-484 423,-484 423,-461 328,-461"/>
<polygon fill="none" stroke="black" points="328,-461 328,-484 423,-484 423,-461 328,-461"/>
<text text-anchor="start" x="348" y="-470" font-family="Helvetica,sans-Serif" font-size="10.00">10.10.0.1/24</text>
<polygon fill="#c079f3" stroke="none" points="428,-461 428,-484 519,-484 519,-461 428,-461"/>
<polygon fill="none" stroke="black" points="428,-461 428,-484 519,-484 519,-461 428,-461"/>
<text text-anchor="start" x="446" y="-470" font-family="Helvetica,sans-Serif" font-size="10.00">10.10.0.2/24</text>
<polygon fill="#c079f3" stroke="none" points="328,-433 328,-456 519,-456 519,-433 328,-433"/>
<polygon fill="none" stroke="black" points="328,-433 328,-456 519,-456 519,-433 328,-433"/>
<text text-anchor="start" x="406" y="-442" font-family="Helvetica,sans-Serif" font-size="10.00">private1</text>
<polygon fill="#ff9933" stroke="none" points="328,-405 328,-428 519,-428 519,-405 328,-405"/>
<polygon fill="none" stroke="black" points="328,-405 328,-428 519,-428 519,-405 328,-405"/>
<text text-anchor="start" x="408" y="-414" font-family="Helvetica,sans-Serif" font-size="10.00">router1</text>
<polygon fill="#ffcc00" stroke="none" points="328,-377 328,-400 519,-400 519,-377 328,-377"/>
<polygon fill="none" stroke="black" points="328,-377 328,-400 519,-400 519,-377 328,-377"/>
<text text-anchor="start" x="396" y="-386" font-family="Helvetica,sans-Serif" font-size="10.00">[1] patch&#45;tun</text>
</g>
<!-- br_ex&#45;&gt;network_br_int -->
<g id="edge9" class="edge"><title>br_ex:qg_757bf552_73:s&#45;&gt;network_br_int:qr_43b83157_3b:n</title>
<path fill="none" stroke="#0066cc" stroke-width="4" d="M376,-656C376,-604.887 375,-592.113 375,-541"/>
</g>
<!-- network_br_tun -->
<g id="node9" class="node"><title>network_br_tun</title>
<polygon fill="white" stroke="none" points="384,-204 384,-264 464,-264 464,-204 384,-204"/>
<polygon fill="white" stroke="none" points="389,-237 389,-259 459,-259 459,-237 389,-237"/>
<text text-anchor="start" x="398" y="-245.5" font-family="Helvetica,sans-Serif" font-size="10.00">OVS br_tun</text>
<polygon fill="#ffcc00" stroke="none" points="389,-209 389,-232 459,-232 459,-209 389,-209"/>
<polygon fill="none" stroke="black" points="389,-209 389,-232 459,-232 459,-209 389,-209"/>
<text text-anchor="start" x="398" y="-218" font-family="Helvetica,sans-Serif" font-size="10.00">[1] patch&#45;int</text>
</g>
<!-- network_br_int&#45;&gt;network_br_tun -->
<g id="edge8" class="edge"><title>network_br_int:patch_tun:s&#45;&gt;network_br_tun:patch_int:n</title>
<path fill="none" stroke="#0066cc" stroke-width="4" d="M424,-376C424,-312.444 424,-296.556 424,-233"/>
</g>
</g>
</svg>
