<?xml version="1.0" encoding="UTF-8" standalone="no"?>
<!DOCTYPE svg PUBLIC "-//W3C//DTD SVG 1.1//EN"
 "http://www.w3.org/Graphics/SVG/1.1/DTD/svg11.dtd">
<!-- Generated by graphviz version 2.36.0 (20140111.2315)
 -->
<!-- Title: DON_network Pages: 1 -->
<svg width="878pt" height="704pt"
 viewBox="0.00 0.00 878.00 704.00" xmlns="http://www.w3.org/2000/svg" xmlns:xlink="http://www.w3.org/1999/xlink">
<g id="graph0" class="graph" transform="scale(1 1) rotate(0) translate(4 700)">
<title>DON_network</title>
<polygon fill="white" stroke="none" points="-4,4 -4,-700 874,-700 874,4 -4,4"/>
<g id="clust1" class="cluster"><title>cluster_NetworkNode</title>
<polygon fill="none" stroke="black" points="324,-632 324,-688 442,-688 442,-632 324,-632"/>
</g>
<g id="clust2" class="cluster"><title>cluster_OVS</title>
<polygon fill="lightgrey" stroke="black" points="8,-8 8,-584 862,-584 862,-8 8,-8"/>
</g>
<g id="clust3" class="cluster"><title>cluster_br_ex</title>
<polygon fill="lightgrey" stroke="black" points="264,-436 264,-576 502,-576 502,-436 264,-436"/>
</g>
<g id="clust4" class="cluster"><title>cluster_network_br_int</title>
<polygon fill="lightgrey" stroke="black" points="16,-156 16,-380 854,-380 854,-156 16,-156"/>
</g>
<g id="clust5" class="cluster"><title>cluster_network_br_tun</title>
<polygon fill="lightgrey" stroke="black" points="365,-16 365,-100 503,-100 503,-16 365,-16"/>
</g>
<!-- NetworkNode -->
<g id="node1" class="node"><title>NetworkNode</title>
<polygon fill="red" stroke="none" points="340.5,-644 340.5,-676 425.5,-676 425.5,-644 340.5,-644"/>
<polygon fill="yellow" stroke="none" points="346,-649 346,-671 421,-671 421,-649 346,-649"/>
<text text-anchor="start" x="351.5" y="-657.5" font-family="Helvetica,sans-Serif" font-size="10.00">Network Node</text>
</g>
<!-- br_ex -->
<g id="node2" class="node"><title>br_ex</title>
<polygon fill="white" stroke="none" points="280,-448 280,-564 486,-564 486,-448 280,-448"/>
<polygon fill="white" stroke="none" points="285,-537 285,-559 481,-559 481,-537 285,-537"/>
<text text-anchor="start" x="358.5" y="-545.5" font-family="Helvetica,sans-Serif" font-size="10.00">OVS br_ex</text>
<polygon fill="#ff9933" stroke="none" points="285,-509 285,-532 380,-532 380,-509 285,-509"/>
<polygon fill="none" stroke="black" points="285,-509 285,-532 380,-532 380,-509 285,-509"/>
<text text-anchor="start" x="317" y="-518" font-family="Helvetica,sans-Serif" font-size="10.00">router1</text>
<polygon fill="#ff9933" stroke="none" points="385,-509 385,-532 481,-532 481,-509 385,-509"/>
<polygon fill="none" stroke="black" points="385,-509 385,-532 481,-532 481,-509 385,-509"/>
<text text-anchor="start" x="417.5" y="-518" font-family="Helvetica,sans-Serif" font-size="10.00">router2</text>
<polygon fill="#ff9933" stroke="none" points="285,-481 285,-504 380,-504 380,-481 285,-481"/>
<polygon fill="none" stroke="black" points="285,-481 285,-504 380,-504 380,-481 285,-481"/>
<text text-anchor="start" x="302.5" y="-490" font-family="Helvetica,sans-Serif" font-size="10.00">172.24.4.3/24</text>
<polygon fill="#ff9933" stroke="none" points="385,-481 385,-504 481,-504 481,-481 385,-481"/>
<polygon fill="none" stroke="black" points="385,-481 385,-504 481,-504 481,-481 385,-481"/>
<text text-anchor="start" x="403" y="-490" font-family="Helvetica,sans-Serif" font-size="10.00">172.24.4.4/24</text>
<polygon fill="#ff9933" stroke="none" points="285,-453 285,-476 380,-476 380,-453 285,-453"/>
<polygon fill="none" stroke="black" points="285,-453 285,-476 380,-476 380,-453 285,-453"/>
<text text-anchor="start" x="291.5" y="-462" font-family="Helvetica,sans-Serif" font-size="10.00">[2] qg&#45;eb8796fb&#45;83</text>
<polygon fill="#ff9933" stroke="none" points="385,-453 385,-476 481,-476 481,-453 385,-453"/>
<polygon fill="none" stroke="black" points="385,-453 385,-476 481,-476 481,-453 385,-453"/>
<text text-anchor="start" x="391" y="-462" font-family="Helvetica,sans-Serif" font-size="10.00">[3] qg&#45;e2b1b0d3&#45;a8</text>
</g>
<!-- NetworkNode&#45;&gt;br_ex -->
<!-- network_br_int -->
<g id="node3" class="node"><title>network_br_int</title>
<polygon fill="white" stroke="none" points="32,-168 32,-368 838,-368 838,-168 32,-168"/>
<polygon fill="white" stroke="none" points="37,-341 37,-363 833,-363 833,-341 37,-341"/>
<text text-anchor="start" x="410.5" y="-349.5" font-family="Helvetica,sans-Serif" font-size="10.00">OVS br_int</text>
<polygon fill="#b2f379" stroke="none" points="37,-313 37,-336 132,-336 132,-313 37,-313"/>
<polygon fill="none" stroke="black" points="37,-313 37,-336 132,-336 132,-313 37,-313"/>
<text text-anchor="start" x="43.5" y="-322" font-family="Helvetica,sans-Serif" font-size="10.00">[8] qr&#45;09a15e37&#45;ca</text>
<polygon fill="#b2f379" stroke="none" points="137,-313 137,-336 231,-336 231,-313 137,-313"/>
<polygon fill="none" stroke="black" points="137,-313 137,-336 231,-336 231,-313 137,-313"/>
<text text-anchor="start" x="143" y="-322" font-family="Helvetica,sans-Serif" font-size="10.00">[6] tapd0828ef0&#45;eb</text>
<polygon fill="#c079f3" stroke="none" points="236,-313 236,-336 330,-336 330,-313 236,-313"/>
<polygon fill="none" stroke="black" points="236,-313 236,-336 330,-336 330,-313 236,-313"/>
<text text-anchor="start" x="242" y="-322" font-family="Helvetica,sans-Serif" font-size="10.00">[7] qr&#45;622abba5&#45;e2</text>
<polygon fill="#c079f3" stroke="none" points="335,-313 335,-336 429,-336 429,-313 335,-313"/>
<polygon fill="none" stroke="black" points="335,-313 335,-336 429,-336 429,-313 335,-313"/>
<text text-anchor="start" x="341" y="-322" font-family="Helvetica,sans-Serif" font-size="10.00">[5] tapd6f091a2&#45;c0</text>
<polygon fill="#c079f3" stroke="none" points="434,-313 434,-336 531,-336 531,-313 434,-313"/>
<polygon fill="none" stroke="black" points="434,-313 434,-336 531,-336 531,-313 434,-313"/>
<text text-anchor="start" x="440" y="-322" font-family="Helvetica,sans-Serif" font-size="10.00">[13] qr&#45;361be2af&#45;e5</text>
<polygon fill="#c079f3" stroke="none" points="536,-313 536,-336 630,-336 630,-313 536,-313"/>
<polygon fill="none" stroke="black" points="536,-313 536,-336 630,-336 630,-313 536,-313"/>
<text text-anchor="start" x="542" y="-322" font-family="Helvetica,sans-Serif" font-size="10.00">[5] tapd6f091a2&#45;c0</text>
<polygon fill="#b2f379" stroke="none" points="635,-313 635,-336 734,-336 734,-313 635,-313"/>
<polygon fill="none" stroke="black" points="635,-313 635,-336 734,-336 734,-313 635,-313"/>
<text text-anchor="start" x="641" y="-322" font-family="Helvetica,sans-Serif" font-size="10.00">[14] qr&#45;b66b902a&#45;36</text>
<polygon fill="#b2f379" stroke="none" points="739,-313 739,-336 833,-336 833,-313 739,-313"/>
<polygon fill="none" stroke="black" points="739,-313 739,-336 833,-336 833,-313 739,-313"/>
<text text-anchor="start" x="745" y="-322" font-family="Helvetica,sans-Serif" font-size="10.00">[6] tapd0828ef0&#45;eb</text>
<polygon fill="#b2f379" stroke="none" points="37,-285 37,-308 132,-308 132,-285 37,-285"/>
<polygon fill="none" stroke="black" points="37,-285 37,-308 132,-308 132,-285 37,-285"/>
<text text-anchor="start" x="58.5" y="-294" font-family="Helvetica,sans-Serif" font-size="10.00">VLAN tag:3</text>
<polygon fill="#b2f379" stroke="none" points="137,-285 137,-308 231,-308 231,-285 137,-285"/>
<polygon fill="none" stroke="black" points="137,-285 137,-308 231,-308 231,-285 137,-285"/>
<text text-anchor="start" x="158" y="-294" font-family="Helvetica,sans-Serif" font-size="10.00">VLAN tag:3</text>
<polygon fill="#c079f3" stroke="none" points="236,-285 236,-308 330,-308 330,-285 236,-285"/>
<polygon fill="none" stroke="black" points="236,-285 236,-308 330,-308 330,-285 236,-285"/>
<text text-anchor="start" x="257" y="-294" font-family="Helvetica,sans-Serif" font-size="10.00">VLAN tag:2</text>
<polygon fill="#c079f3" stroke="none" points="335,-285 335,-308 429,-308 429,-285 335,-285"/>
<polygon fill="none" stroke="black" points="335,-285 335,-308 429,-308 429,-285 335,-285"/>
<text text-anchor="start" x="356" y="-294" font-family="Helvetica,sans-Serif" font-size="10.00">VLAN tag:2</text>
<polygon fill="#c079f3" stroke="none" points="434,-285 434,-308 531,-308 531,-285 434,-285"/>
<polygon fill="none" stroke="black" points="434,-285 434,-308 531,-308 531,-285 434,-285"/>
<text text-anchor="start" x="456.5" y="-294" font-family="Helvetica,sans-Serif" font-size="10.00">VLAN tag:2</text>
<polygon fill="#c079f3" stroke="none" points="536,-285 536,-308 630,-308 630,-285 536,-285"/>
<polygon fill="none" stroke="black" points="536,-285 536,-308 630,-308 630,-285 536,-285"/>
<text text-anchor="start" x="557" y="-294" font-family="Helvetica,sans-Serif" font-size="10.00">VLAN tag:2</text>
<polygon fill="#b2f379" stroke="none" points="635,-285 635,-308 734,-308 734,-285 635,-285"/>
<polygon fill="none" stroke="black" points="635,-285 635,-308 734,-308 734,-285 635,-285"/>
<text text-anchor="start" x="658.5" y="-294" font-family="Helvetica,sans-Serif" font-size="10.00">VLAN tag:3</text>
<polygon fill="#b2f379" stroke="none" points="739,-285 739,-308 833,-308 833,-285 739,-285"/>
<polygon fill="none" stroke="black" points="739,-285 739,-308 833,-308 833,-285 739,-285"/>
<text text-anchor="start" x="760" y="-294" font-family="Helvetica,sans-Serif" font-size="10.00">VLAN tag:3</text>
<polygon fill="#b2f379" stroke="none" points="37,-257 37,-280 132,-280 132,-257 37,-257"/>
<polygon fill="none" stroke="black" points="37,-257 37,-280 132,-280 132,-257 37,-257"/>
<text text-anchor="start" x="60" y="-266" font-family="Helvetica,sans-Serif" font-size="10.00">10.0.3.1/24</text>
<polygon fill="#b2f379" stroke="none" points="137,-257 137,-280 231,-280 231,-257 137,-257"/>
<polygon fill="none" stroke="black" points="137,-257 137,-280 231,-280 231,-257 137,-257"/>
<text text-anchor="start" x="159.5" y="-266" font-family="Helvetica,sans-Serif" font-size="10.00">10.0.3.2/24</text>
<polygon fill="#c079f3" stroke="none" points="236,-257 236,-280 330,-280 330,-257 236,-257"/>
<polygon fill="none" stroke="black" points="236,-257 236,-280 330,-280 330,-257 236,-257"/>
<text text-anchor="start" x="258.5" y="-266" font-family="Helvetica,sans-Serif" font-size="10.00">10.0.2.1/24</text>
<polygon fill="#c079f3" stroke="none" points="335,-257 335,-280 429,-280 429,-257 335,-257"/>
<polygon fill="none" stroke="black" points="335,-257 335,-280 429,-280 429,-257 335,-257"/>
<text text-anchor="start" x="357.5" y="-266" font-family="Helvetica,sans-Serif" font-size="10.00">10.0.2.2/24</text>
<polygon fill="#c079f3" stroke="none" points="434,-257 434,-280 531,-280 531,-257 434,-257"/>
<polygon fill="none" stroke="black" points="434,-257 434,-280 531,-280 531,-257 434,-257"/>
<text text-anchor="start" x="458" y="-266" font-family="Helvetica,sans-Serif" font-size="10.00">10.0.2.5/24</text>
<polygon fill="#c079f3" stroke="none" points="536,-257 536,-280 630,-280 630,-257 536,-257"/>
<polygon fill="none" stroke="black" points="536,-257 536,-280 630,-280 630,-257 536,-257"/>
<text text-anchor="start" x="558.5" y="-266" font-family="Helvetica,sans-Serif" font-size="10.00">10.0.2.2/24</text>
<polygon fill="#b2f379" stroke="none" points="635,-257 635,-280 734,-280 734,-257 635,-257"/>
<polygon fill="none" stroke="black" points="635,-257 635,-280 734,-280 734,-257 635,-257"/>
<text text-anchor="start" x="660" y="-266" font-family="Helvetica,sans-Serif" font-size="10.00">10.0.3.5/24</text>
<polygon fill="#b2f379" stroke="none" points="739,-257 739,-280 833,-280 833,-257 739,-257"/>
<polygon fill="none" stroke="black" points="739,-257 739,-280 833,-280 833,-257 739,-257"/>
<text text-anchor="start" x="761.5" y="-266" font-family="Helvetica,sans-Serif" font-size="10.00">10.0.3.2/24</text>
<polygon fill="#b2f379" stroke="none" points="37,-229 37,-252 231,-252 231,-229 37,-229"/>
<polygon fill="none" stroke="black" points="37,-229 37,-252 231,-252 231,-229 37,-229"/>
<text text-anchor="start" x="116.5" y="-238" font-family="Helvetica,sans-Serif" font-size="10.00">private2</text>
<polygon fill="#c079f3" stroke="none" points="236,-229 236,-252 429,-252 429,-229 236,-229"/>
<polygon fill="none" stroke="black" points="236,-229 236,-252 429,-252 429,-229 236,-229"/>
<text text-anchor="start" x="315" y="-238" font-family="Helvetica,sans-Serif" font-size="10.00">private1</text>
<polygon fill="#c079f3" stroke="none" points="434,-229 434,-252 630,-252 630,-229 434,-229"/>
<polygon fill="none" stroke="black" points="434,-229 434,-252 630,-252 630,-229 434,-229"/>
<text text-anchor="start" x="514.5" y="-238" font-family="Helvetica,sans-Serif" font-size="10.00">private1</text>
<polygon fill="#b2f379" stroke="none" points="635,-229 635,-252 833,-252 833,-229 635,-229"/>
<polygon fill="none" stroke="black" points="635,-229 635,-252 833,-252 833,-229 635,-229"/>
<text text-anchor="start" x="716.5" y="-238" font-family="Helvetica,sans-Serif" font-size="10.00">private2</text>
<polygon fill="#ff9933" stroke="none" points="37,-201 37,-224 429,-224 429,-201 37,-201"/>
<polygon fill="none" stroke="black" points="37,-201 37,-224 429,-224 429,-201 37,-201"/>
<text text-anchor="start" x="217.5" y="-210" font-family="Helvetica,sans-Serif" font-size="10.00">router1</text>
<polygon fill="#ff9933" stroke="none" points="434,-201 434,-224 833,-224 833,-201 434,-201"/>
<polygon fill="none" stroke="black" points="434,-201 434,-224 833,-224 833,-201 434,-201"/>
<text text-anchor="start" x="618" y="-210" font-family="Helvetica,sans-Serif" font-size="10.00">router2</text>
<polygon fill="#ffcc00" stroke="none" points="37,-173 37,-196 833,-196 833,-173 37,-173"/>
<polygon fill="none" stroke="black" points="37,-173 37,-196 833,-196 833,-173 37,-173"/>
<text text-anchor="start" x="407.5" y="-182" font-family="Helvetica,sans-Serif" font-size="10.00">[1] patch&#45;tun</text>
</g>
<!-- br_ex&#45;&gt;network_br_int -->
<g id="edge3" class="edge"><title>br_ex:qg_e2b1b0d3_a8:s&#45;&gt;network_br_int:qr_361be2af_e5:n</title>
<path fill="none" stroke="#0066cc" stroke-width="4" d="M433,-452C433,-396.267 483,-392.733 483,-337"/>
</g>
<!-- br_ex&#45;&gt;network_br_int -->
<g id="edge4" class="edge"><title>br_ex:qg_e2b1b0d3_a8:s&#45;&gt;network_br_int:qr_b66b902a_36:n</title>
<path fill="none" stroke="#0066cc" stroke-width="4" d="M433,-452C433,-328.889 685,-460.111 685,-337"/>
</g>
<!-- br_ex&#45;&gt;network_br_int -->
<g id="edge5" class="edge"><title>br_ex:qg_eb8796fb_83:s&#45;&gt;network_br_int:qr_09a15e37_ca:n</title>
<path fill="none" stroke="#0066cc" stroke-width="4" d="M332,-452C332,-330.504 84,-458.496 84,-337"/>
</g>
<!-- br_ex&#45;&gt;network_br_int -->
<g id="edge6" class="edge"><title>br_ex:qg_eb8796fb_83:s&#45;&gt;network_br_int:qr_622abba5_e2:n</title>
<path fill="none" stroke="#0066cc" stroke-width="4" d="M332,-452C332,-396.443 283,-392.557 283,-337"/>
</g>
<!-- network_br_tun -->
<g id="node4" class="node"><title>network_br_tun</title>
<polygon fill="white" stroke="none" points="381.5,-28 381.5,-88 486.5,-88 486.5,-28 381.5,-28"/>
<polygon fill="white" stroke="none" points="387,-61 387,-83 482,-83 482,-61 387,-61"/>
<text text-anchor="start" x="408.5" y="-69.5" font-family="Helvetica,sans-Serif" font-size="10.00">OVS br_tun</text>
<polygon fill="#ffcc00" stroke="none" points="387,-33 387,-56 482,-56 482,-33 387,-33"/>
<polygon fill="none" stroke="black" points="387,-33 387,-56 482,-56 482,-33 387,-33"/>
<text text-anchor="start" x="408.5" y="-42" font-family="Helvetica,sans-Serif" font-size="10.00">[1] patch&#45;int</text>
</g>
<!-- network_br_int&#45;&gt;network_br_tun -->
<g id="edge2" class="edge"><title>network_br_int:patch_tun:s&#45;&gt;network_br_tun:patch_int:n</title>
<path fill="none" stroke="#0066cc" stroke-width="4" d="M435,-172C435,-120.889 435,-108.111 435,-57"/>
</g>
</g>
</svg>
